<svg
    width="892.8"
    height="299.1"
    viewBox="-10 -10 912.8 319.1"
    xmlns="http://www.w3.org/2000/svg"
    overflow="visible"
>
    <g
        id="logoGroup"
        stroke-linecap="round"
        fill-rule="evenodd"
        font-size="9pt"
        stroke-width="1mm"
        style="stroke: #052f4a; stroke-width: 1mm; fill: #0069a8"
    >
        <path
            id="logoPath"
            d="M 175.2 28.5 L 151.5 56.7 A 90.9 90.9 0 0 0 150.444 55.734 Q 142.716 48.782 133.627 43.813 A 89.804 89.804 0 0 0 133.05 43.5 Q 123 38.1 108 38.1 Q 89.462 38.1 75.395 47.189 A 55.795 55.795 0 0 0 75.3 47.25 A 55.721 55.721 0 0 0 73.777 48.275 Q 61.032 57.155 53.695 72.86 A 77.691 77.691 0 0 0 53.4 73.5 Q 45.722 90.333 45.602 113.853 A 146.692 146.692 0 0 0 45.6 114.6 Q 45.6 138.9 52.95 156.15 Q 60.3 173.4 75 182.7 Q 89.7 192 111.3 192 A 57.923 57.923 0 0 0 112.31 191.991 Q 118.492 191.883 124.322 190.453 A 52.621 52.621 0 0 0 126.9 189.75 A 49.493 49.493 0 0 0 127.366 189.608 Q 134.207 187.482 138.489 183.948 A 22.386 22.386 0 0 0 138.9 183.6 L 138.9 139.8 L 99.6 139.8 L 99.6 103.5 L 178.8 103.5 L 178.8 203.7 A 67.19 67.19 0 0 1 178.171 204.305 Q 167.078 214.829 149.132 222.338 A 140.453 140.453 0 0 1 148.5 222.6 A 95.191 95.191 0 0 1 146.719 223.314 Q 128.673 230.339 106.877 230.399 A 136.493 136.493 0 0 1 106.5 230.4 A 135.738 135.738 0 0 1 105.564 230.397 Q 76.123 230.194 52.35 217.2 A 96.567 96.567 0 0 1 50.874 216.376 Q 27.766 203.216 14.1 178.5 A 95.538 95.538 0 0 1 13.339 177.097 Q 0.168 152.308 0.002 117.004 A 192.033 192.033 0 0 1 0 116.1 Q 0 88.5 8.25 67.05 A 126.02 126.02 0 0 1 8.64 66.048 Q 16.793 45.38 31.018 30.786 A 96.725 96.725 0 0 1 31.2 30.6 A 106.42 106.42 0 0 1 32.123 29.67 Q 46.288 15.568 64.551 8.025 A 102.541 102.541 0 0 1 65.1 7.8 Q 83.88 0.171 105.53 0.004 A 125.815 125.815 0 0 1 106.5 0 A 129.292 129.292 0 0 1 107.248 0.002 Q 130.711 0.138 147.374 8.81 A 65.77 65.77 0 0 1 147.45 8.85 A 158.512 158.512 0 0 1 148.241 9.266 Q 164.583 17.916 175.11 28.41 A 81.486 81.486 0 0 1 175.2 28.5 Z M 602.4 221.1 L 602.4 219.6 A 34.896 34.896 0 0 1 601.382 218.927 Q 595.46 214.861 591.45 208.5 Q 587.1 201.6 587.1 191.1 A 30.931 30.931 0 0 1 587.112 190.23 Q 587.353 181.679 592.335 174.026 A 37.728 37.728 0 0 1 592.65 173.55 A 61.253 61.253 0 0 1 592.999 173.037 Q 598.338 165.271 605.443 160.086 A 49.489 49.489 0 0 1 605.7 159.9 L 605.7 158.7 A 44.795 44.795 0 0 1 605.158 158.301 Q 596.784 152.044 590.1 141 A 45.546 45.546 0 0 1 588.867 138.831 Q 583.33 128.438 583.203 115.224 A 64.73 64.73 0 0 1 583.2 114.6 Q 583.2 94.8 592.65 81.3 Q 601.874 68.123 616.957 61.234 A 67.853 67.853 0 0 1 617.7 60.9 A 82.304 82.304 0 0 1 619.166 60.268 Q 633.914 54.084 650.254 54.001 A 87.577 87.577 0 0 1 650.7 54 A 92.829 92.829 0 0 1 651.401 54.003 Q 658.375 54.055 664.429 55.159 A 62.937 62.937 0 0 1 664.65 55.2 A 109.006 109.006 0 0 1 665.252 55.314 Q 671.353 56.484 676.5 58.2 L 736.8 58.2 L 736.8 90.6 L 708.3 90.6 A 28.541 28.541 0 0 1 708.607 91.026 Q 711.657 95.351 713.646 101.533 A 53.634 53.634 0 0 1 713.7 101.7 Q 715.721 108.053 715.797 115.517 A 57.444 57.444 0 0 1 715.8 116.1 A 81.495 81.495 0 0 1 715.798 116.689 Q 715.673 133.93 708.235 146 A 44.825 44.825 0 0 1 707.1 147.75 Q 698.4 160.5 683.7 166.8 A 71.236 71.236 0 0 1 682.314 167.377 Q 668.142 173.1 650.7 173.1 Q 646.2 173.1 640.5 172.05 A 91.498 91.498 0 0 1 639.075 171.776 Q 634.088 170.775 629.1 169.2 Q 625.814 172.187 623.867 175.323 A 22.297 22.297 0 0 0 623.85 175.35 Q 621.921 178.466 621.9 183.784 A 29.695 29.695 0 0 0 621.9 183.9 A 13.303 13.303 0 0 0 621.906 184.291 Q 622.082 190.288 627.705 193.772 A 17.51 17.51 0 0 0 627.75 193.8 A 12.488 12.488 0 0 0 627.935 193.912 Q 633.797 197.381 648.142 197.4 A 119.53 119.53 0 0 0 648.3 197.4 L 677.1 197.4 A 180.943 180.943 0 0 1 677.926 197.402 Q 707.621 197.537 723.6 207.45 A 38.705 38.705 0 0 1 724.102 207.767 Q 739.603 217.716 739.798 238.86 A 58.621 58.621 0 0 1 739.8 239.4 Q 739.8 256.156 728.998 269.312 A 54.908 54.908 0 0 1 728.55 269.85 Q 717.48 282.987 697.405 290.894 A 114.871 114.871 0 0 1 696.75 291.15 Q 676.2 299.1 648.3 299.1 A 167.451 167.451 0 0 1 647.374 299.097 Q 628.598 298.994 613.362 294.669 A 99.286 99.286 0 0 1 612.6 294.45 Q 596.7 289.8 587.55 280.35 A 32.893 32.893 0 0 1 586.987 279.754 Q 578.555 270.6 578.403 256.423 A 48.708 48.708 0 0 1 578.4 255.9 Q 578.4 245.722 584.037 236.954 A 39.827 39.827 0 0 1 584.4 236.4 A 36.322 36.322 0 0 1 584.976 235.562 Q 590.912 227.176 602.207 221.202 A 70.691 70.691 0 0 1 602.4 221.1 Z M 441 226.2 L 396.9 226.2 L 396.9 58.2 L 432.9 58.2 L 436.2 80.4 L 437.1 80.4 A 132.251 132.251 0 0 1 438.496 79.062 Q 449.025 69.113 461.4 61.8 Q 474.325 54.162 490.99 54.003 A 74.447 74.447 0 0 1 491.7 54 A 82.708 82.708 0 0 1 492.338 54.002 Q 519.144 54.209 531.3 71.85 A 52.476 52.476 0 0 1 531.87 72.694 Q 543.548 90.366 543.6 121.223 A 163.901 163.901 0 0 1 543.6 121.5 L 543.6 226.2 L 499.5 226.2 L 499.5 126.9 A 135.24 135.24 0 0 0 499.499 126.331 Q 499.419 107.286 493.95 99.6 A 17.664 17.664 0 0 0 493.596 99.12 Q 488.042 91.847 475.956 91.8 A 40.482 40.482 0 0 0 475.8 91.8 A 42.847 42.847 0 0 0 475.165 91.805 Q 465.502 91.948 458.164 96.467 A 30.059 30.059 0 0 0 457.95 96.6 A 56.406 56.406 0 0 0 457.591 96.827 Q 450.226 101.526 441.347 110.354 A 170.067 170.067 0 0 0 441 110.7 L 441 226.2 Z M 774 105.6 L 758.4 76.2 A 144.581 144.581 0 0 1 760.267 75.032 Q 769.341 69.45 779.4 65.1 A 147.446 147.446 0 0 1 780.792 64.506 Q 790.771 60.313 801.706 57.434 A 169.366 169.366 0 0 1 802.8 57.15 A 98.633 98.633 0 0 1 805.889 56.412 Q 816.191 54.124 827.113 54.006 A 110.125 110.125 0 0 1 828.3 54 A 107.204 107.204 0 0 1 828.964 54.002 Q 849.091 54.127 862.994 61.828 A 52.08 52.08 0 0 1 864 62.4 A 52.013 52.013 0 0 1 864.893 62.933 Q 878.358 71.152 885.326 86.681 A 65.416 65.416 0 0 1 885.6 87.3 A 67.257 67.257 0 0 1 885.934 88.078 Q 892.702 104.138 892.799 127.426 A 162.943 162.943 0 0 1 892.8 128.1 L 892.8 226.2 L 856.8 226.2 L 853.8 208.2 L 852.3 208.2 Q 843.888 215.678 834.383 221.153 A 105.481 105.481 0 0 1 828.9 224.1 A 60.061 60.061 0 0 1 827.516 224.77 Q 815.496 230.4 801.6 230.4 A 66.362 66.362 0 0 1 800.799 230.395 Q 786.592 230.224 775.65 223.95 Q 764.721 217.684 758.605 206.746 A 48.76 48.76 0 0 1 758.25 206.1 A 48.994 48.994 0 0 1 756.16 201.72 Q 752.212 192.268 752.103 180.944 A 66.968 66.968 0 0 1 752.1 180.3 Q 752.1 153.725 774.985 138.889 A 66.952 66.952 0 0 1 775.2 138.75 A 67.175 67.175 0 0 1 775.745 138.403 Q 798.714 123.948 847.942 118.582 A 415.122 415.122 0 0 1 848.7 118.5 Q 848.4 110.1 845.7 103.65 A 23.233 23.233 0 0 0 845.439 103.051 Q 842.712 97.017 836.85 93.3 Q 830.815 89.473 820.59 89.401 A 55.883 55.883 0 0 0 820.2 89.4 Q 808.5 89.4 797.1 93.9 A 125.72 125.72 0 0 0 796.387 94.184 Q 785.334 98.625 774 105.6 Z M 358.5 154.8 L 255 154.8 A 73.171 73.171 0 0 0 255.102 155.535 Q 256.972 168.554 263.1 177.6 A 44.817 44.817 0 0 0 263.497 178.177 Q 269.531 186.791 278.753 191.288 A 41.491 41.491 0 0 0 279.3 191.55 Q 288.969 196.091 301.212 196.197 A 67.777 67.777 0 0 0 301.8 196.2 Q 311.524 196.2 320.158 193.61 A 58.012 58.012 0 0 0 321 193.35 A 68.454 68.454 0 0 0 321.844 193.077 Q 330.436 190.233 339.3 184.8 L 354.3 211.8 A 100.856 100.856 0 0 1 352.751 212.837 Q 341.044 220.519 326.7 225.3 A 105.047 105.047 0 0 1 325.743 225.614 Q 310.913 230.4 295.8 230.4 Q 272.439 230.4 253.563 219.935 A 81.543 81.543 0 0 1 253.5 219.9 A 78.57 78.57 0 0 1 252.326 219.235 Q 234.592 208.98 223.767 190.327 A 91.753 91.753 0 0 1 223.35 189.6 Q 212.165 169.914 212.1 142.517 A 135.051 135.051 0 0 1 212.1 142.2 A 128.109 128.109 0 0 1 212.104 141.246 Q 212.249 121.665 218.395 105.992 A 80.707 80.707 0 0 1 218.55 105.6 A 97.733 97.733 0 0 1 218.958 104.592 Q 225.352 89.039 236.25 77.85 A 90.662 90.662 0 0 1 236.956 77.133 Q 245.36 68.695 255.248 63.225 A 76.855 76.855 0 0 1 261.45 60.15 A 76.471 76.471 0 0 1 262.323 59.772 Q 275.218 54.277 289.006 54.013 A 72.825 72.825 0 0 1 290.4 54 A 102.335 102.335 0 0 1 291.12 54.003 Q 313.744 54.162 329.1 64.35 Q 344.7 74.7 352.65 92.85 Q 360.453 110.665 360.597 133.539 A 136.907 136.907 0 0 1 360.6 134.4 A 119.168 119.168 0 0 1 360.598 135.148 Q 360.563 140.591 360.031 145.66 A 96.878 96.878 0 0 1 360 145.95 Q 359.4 151.5 358.5 154.8 Z M 669.6 231.6 L 648.9 231.6 Q 641.4 231.6 636 231.15 Q 630.6 230.7 625.8 229.5 Q 620.1 234 617.55 238.95 A 24.78 24.78 0 0 0 617.26 239.532 Q 615.074 244.063 615.002 248.966 A 22.785 22.785 0 0 0 615 249.3 Q 615 259.438 625.668 265.13 A 32.859 32.859 0 0 0 625.8 265.2 A 35.322 35.322 0 0 0 626.31 265.464 Q 637.029 270.9 654.9 270.9 A 99.744 99.744 0 0 0 655.603 270.898 Q 668.058 270.81 677.25 267.6 A 59.631 59.631 0 0 0 677.764 267.418 Q 686.462 264.291 691.648 259.342 A 27.129 27.129 0 0 0 692.1 258.9 Q 697.5 253.5 697.5 246.9 Q 697.5 238.127 690.658 234.912 A 14.682 14.682 0 0 0 690.3 234.75 A 23.293 23.293 0 0 0 689.959 234.604 Q 682.784 231.6 669.6 231.6 Z M 650.7 145.8 A 30.961 30.961 0 0 0 651.167 145.796 Q 658.388 145.688 664.2 142.2 A 23.222 23.222 0 0 0 666.859 140.34 Q 671.037 136.961 673.8 131.55 A 28.068 28.068 0 0 0 674.13 130.883 Q 677.4 124.036 677.4 114.6 A 53.746 53.746 0 0 0 677.397 114.061 Q 677.305 104.899 674.076 98.483 A 25.339 25.339 0 0 0 673.8 97.95 Q 670.411 91.595 664.894 88.165 A 23.496 23.496 0 0 0 664.2 87.75 Q 658.235 84.32 650.786 84.3 A 32.561 32.561 0 0 0 650.7 84.3 A 29.709 29.709 0 0 0 650.028 84.308 Q 643.249 84.461 637.552 87.72 A 26.785 26.785 0 0 0 637.5 87.75 A 22.996 22.996 0 0 0 636.623 88.28 Q 631.244 91.701 628.05 97.95 A 25.797 25.797 0 0 0 627.747 98.563 Q 624.674 104.99 624.602 114.158 A 56.215 56.215 0 0 0 624.6 114.6 Q 624.6 124.046 627.741 130.898 A 28.582 28.582 0 0 0 628.05 131.55 A 31.986 31.986 0 0 0 628.268 131.987 Q 631.579 138.5 637.135 141.976 A 22.872 22.872 0 0 0 637.5 142.2 Q 643.5 145.8 650.7 145.8 Z M 254.1 125.1 L 322.8 125.1 A 73.1 73.1 0 0 0 322.798 124.577 Q 322.683 108.505 315.478 98.689 A 31.419 31.419 0 0 0 315.15 98.25 A 24.075 24.075 0 0 0 314.663 97.632 Q 307.028 88.253 291.18 88.2 A 53.901 53.901 0 0 0 291 88.2 A 37.072 37.072 0 0 0 290.051 88.212 Q 281.873 88.421 274.5 92.25 A 31.912 31.912 0 0 0 271.659 93.916 Q 265.905 97.704 261.621 104.066 A 44.693 44.693 0 0 0 261.3 104.55 A 37.433 37.433 0 0 0 260.966 105.07 Q 255.844 113.184 254.1 125.1 Z M 848.7 179.4 L 848.7 145.8 A 272.555 272.555 0 0 0 848.065 145.876 Q 828.23 148.256 816.439 152.648 A 67.06 67.06 0 0 0 816.3 152.7 Q 804.348 157.182 799.241 163.301 A 20.101 20.101 0 0 0 799.2 163.35 Q 794.329 169.224 794.11 176.331 A 21.802 21.802 0 0 0 794.1 177 A 31.474 31.474 0 0 0 794.102 177.308 Q 794.194 186.724 799.945 191.17 A 14.414 14.414 0 0 0 800.25 191.4 Q 806.4 195.9 816.3 195.9 Q 825.6 195.9 833.25 191.55 Q 840.704 187.311 848.301 179.797 A 103.364 103.364 0 0 0 848.7 179.4 Z"
        />
    </g>
</svg>
